<svg id="לוגו" xmlns="http://www.w3.org/2000/svg" viewBox="0 0 211.67 211.67"><defs><style>.cls-1,.cls-3{fill:#00a33d;}.cls-1{stroke:#00a33d;}.cls-2,.cls-5{fill:#fff;}.cls-4{fill:none;stroke-width:0.3px;}.cls-4,.cls-5{stroke:#fff;}.cls-5{stroke-width:0.5px;}</style></defs><title>MOAG-logo</title><circle id="עיגול_חיצוני" data-name="עיגול חיצוני" class="cls-1" cx="105.83" cy="105.83" r="105.33"/><path class="cls-2" d="M692.59,394.65a98.59,98.59,0,0,1-27,72.72C649.39,484.51,627,498,596.11,499.05c-31.76,1.1-55.62-11.54-73.44-27.72-17.5-15.89-30.58-37.8-31.68-69.48-1.1-32,12.23-56.65,27.72-73.44,15.31-16.59,39.13-30.1,70.92-31,45-1.22,78,24.82,93.24,57.24C688.74,367.2,691.84,379.17,692.59,394.65Zm-28.44,68.4c14.87-17,27-39.83,24.84-71.64-1.93-29-15.42-50.37-32-65.16-16.44-14.64-40.42-27.34-72.36-24.84a99,99,0,0,0-65.52,32A95.9,95.9,0,0,0,495,405.81c2.29,28.43,14.84,49.85,32,65.16a97.8,97.8,0,0,0,72.36,24.12C628.27,492.68,648.91,480.45,664.15,463.05Z" transform="translate(-486.16 -292.83)"/><path class="cls-2" d="M643.27,455.85c9.76-2.15,8,12.65-.72,10.44C638.73,465.31,637.21,457.18,643.27,455.85Z" transform="translate(-486.16 -292.83)"/><path class="cls-2" d="M630,377.73h7.2c-3.86,24.1-20.65,38.38-43.2,45,.75,5.53.38,10.11,1.08,15.84H583.51c.12-5.29.77-10,.72-15.48-21.22-8.19-38.63-20.17-42.48-45.72H549c3.47,21.85,17,33.67,35.28,40.68a18.38,18.38,0,0,0,.72-5.76c-15.87-4.9-27-16.47-28.08-34.92h6.48c1.72,15.44,8.48,25.84,21.6,29.88.69-2.77.36-5.54.72-7.92-9.31-3.43-17.06-10.29-16.92-22h4.32c.59,9.24,5.56,14.12,12.6,16.92A165.51,165.51,0,0,0,586.75,377c-4-3.2-9.34-4.83-11.88-9.72-1.94-3.75-.71-8.91-2.52-13.68,6.08,4.84,12.75,9.09,14.4,18.36.46-4.54,1.35-7.78,1.16-11.52l2.81-.1q.19,6.67.71,13.06c2.24-9.77,8.85-17.06,15.48-21.24-2.11,5.34-.71,11.16-2.52,15.84-2,5.1-7.81,6.4-12.6,8.64-.18,5.45.48,11.16.72,17.64,7.63-2.21,12.2-7.48,13-16.56h4.68c-1,11.79-7.14,18.53-17.28,21.24-.21,3.88.47,4.7.36,8.28,13.48-3.68,20.26-14.06,22-29.52H622c-2.28,18.6-12,29.8-28.44,34.2.09,2.07-.27,4.59.36,6.12C613,411.69,626.25,399.47,630,377.73Z" transform="translate(-486.16 -292.83)"/><path class="cls-2" d="M515.83,432.81c8.34-1.36,7.53,10.88.72,10.8C510.46,443.53,508.92,433.93,515.83,432.81Z" transform="translate(-486.16 -292.83)"/><path class="cls-2" d="M540,460.17c.92,7.71-11.33,8.91-11.16.72.05-2.58,1.42-4.38,4.32-5C537.49,454.84,539.6,457.26,540,460.17Z" transform="translate(-486.16 -292.83)"/><path class="cls-2" d="M587.83,330.93c5,6.09,10,21.56,2.88,29.16a2.35,2.35,0,0,0,0,.26l-2.81.1c0-.36,0-.72-.08-1.08-.6-5.63-5-8.79-4.68-14C583.49,339.83,587.41,337.17,587.83,330.93Z" transform="translate(-486.16 -292.83)"/><path class="cls-2" d="M569.83,441.09c11.83,0,26.59,0,39.6,0-.16,1.64.36,4-.36,5h-40C569.28,444.61,568.6,440.35,569.83,441.09Z" transform="translate(-486.16 -292.83)"/><path class="cls-3" d="M689,391.41c2.12,31.81-10,54.66-24.84,71.64-15.24,17.4-35.88,29.63-64.8,32A97.8,97.8,0,0,1,527,471c-17.2-15.31-29.75-36.73-32-65.16a95.9,95.9,0,0,1,24.12-72.36,99,99,0,0,1,65.52-32c31.94-2.5,55.92,10.2,72.36,24.84C673.57,341,687.06,362.46,689,391.41Zm-26.64,52.2c6.65-.1,7.3-12.29-1.08-10.8C654.54,434,656.06,443.7,662.35,443.61Zm-19.8,22.68c8.71,2.21,10.48-12.59.72-10.44C637.21,457.18,638.73,465.31,642.55,466.29Zm-5.4-88.56H630c-3.7,21.74-16.92,34-36,40.32-.63-1.53-.27-4.05-.36-6.12,16.48-4.4,26.16-15.6,28.44-34.2h-6.84c-1.7,15.46-8.48,25.84-22,29.52.11-3.58-.57-4.4-.36-8.28,10.14-2.71,16.23-9.45,17.28-21.24h-4.68c-.76,9.08-5.33,14.35-13,16.56-.24-6.48-.9-12.19-.72-17.64,4.79-2.24,10.62-3.54,12.6-8.64,1.81-4.68.41-10.5,2.52-15.84-6.63,4.18-13.24,11.47-15.48,21.24q-.51-6.39-.71-13.06a2.35,2.35,0,0,1,0-.26c7.08-7.6,2.15-23.07-2.88-29.16-.42,6.24-4.34,8.9-4.68,14.4-.33,5.25,4.08,8.41,4.68,14,0,.36.06.72.08,1.08.19,3.74-.7,7-1.16,11.52-1.65-9.27-8.32-13.52-14.4-18.36,1.81,4.77.58,9.93,2.52,13.68,2.54,4.89,7.83,6.52,11.88,9.72a165.51,165.51,0,0,1-1.08,17.28c-7-2.8-12-7.68-12.6-16.92h-4.32c-.14,11.67,7.61,18.53,16.92,22-.36,2.38,0,5.15-.72,7.92-13.12-4-19.88-14.44-21.6-29.88h-6.48c1.11,18.45,12.21,30,28.08,34.92a18.38,18.38,0,0,1-.72,5.76c-18.31-7-31.81-18.83-35.28-40.68h-7.2c3.85,25.55,21.26,37.53,42.48,45.72,0,5.45-.6,10.19-.72,15.48H595c-.7-5.73-.33-10.31-1.08-15.84C616.5,416.11,633.29,401.83,637.15,377.73ZM625.27,476c0-3.52-2.27-6.37-7.2-5-2.84.76-4,2.52-4,5C614.11,483.92,625.23,482.74,625.27,476Zm-11.16-27.36h-50c-.83,1.56-.12,4.67-.36,6.84h50C614.52,453.86,613.92,450.86,614.11,448.65Zm-4.68-7.56c-13,0-27.77,0-39.6,0-1.23-.74-.55,3.52-.72,5h40C609.79,445.05,609.27,442.73,609.43,441.09Zm-16.2,45c5.94-1.49,4.27-12.22-3.24-10.44a5.26,5.26,0,0,0-4,3.24C584.34,485.64,590.18,486.85,593.23,486.09Zm-39.6-10.44c-.45,9.86,13.55,6.07,10.8-1.8-.68-1.94-2.59-4-6.84-2.88C554.67,471.73,553.73,473.56,553.63,475.65Zm-24.84-14.76c-.17,8.19,12.08,7,11.16-.72-.35-2.91-2.46-5.33-6.84-4.32C530.21,456.51,528.84,458.31,528.79,460.89Zm-12.24-17.28c6.81.08,7.62-12.16-.72-10.8C508.92,433.93,510.46,443.53,516.55,443.61Z" transform="translate(-486.16 -292.83)"/><path class="cls-2" d="M564.43,473.85c2.75,7.87-11.25,11.66-10.8,1.8.1-2.09,1-3.92,4-4.68C561.84,469.85,563.75,471.91,564.43,473.85Z" transform="translate(-486.16 -292.83)"/><path class="cls-2" d="M590,475.65c7.51-1.78,9.18,9,3.24,10.44-3.05.76-8.89-.45-7.2-7.2A5.26,5.26,0,0,1,590,475.65Z" transform="translate(-486.16 -292.83)"/><path class="cls-2" d="M661.27,432.81c8.38-1.49,7.73,10.7,1.08,10.8C656.06,443.7,654.54,434,661.27,432.81Z" transform="translate(-486.16 -292.83)"/><path class="cls-2" d="M564.07,448.65h50c-.19,2.21.41,5.21-.36,6.84h-50C564,453.32,563.24,450.21,564.07,448.65Z" transform="translate(-486.16 -292.83)"/><path class="cls-2" d="M618.07,471c4.93-1.33,7.22,1.52,7.2,5,0,6.73-11.16,7.91-11.16,0C614.11,473.49,615.23,471.73,618.07,471Z" transform="translate(-486.16 -292.83)"/><path class="cls-4" d="M518.71,328.41C503.22,345.2,489.89,369.9,491,401.85c1.1,31.68,14.18,53.59,31.68,69.48,17.82,16.18,41.68,28.82,73.44,27.72,30.84-1.07,53.28-14.54,69.48-31.68a98.59,98.59,0,0,0,27-72.72c-.75-15.48-3.85-27.45-9.72-40-15.2-32.42-48.27-58.46-93.24-57.24C557.84,298.31,534,311.82,518.71,328.41Z" transform="translate(-486.16 -292.83)"/><g id="טקסט"><path class="cls-5" d="M517.47,400.06l.24,2.87-6.86.57a4.77,4.77,0,0,0-3.12,1.13,3.6,3.6,0,0,0-.73,2.84,17.86,17.86,0,0,0,.47,2.53l-2.89.46a12.35,12.35,0,0,1-.72-3.37,5.78,5.78,0,0,1,1.2-4.52q1.44-1.59,4.88-1.88Z" transform="translate(-486.16 -292.83)"/><path class="cls-5" d="M503.93,396.6a12.09,12.09,0,0,1-.4-4,5.79,5.79,0,0,1,2.23-4.43,7.27,7.27,0,0,1,5.11-1.36,7.78,7.78,0,0,1,5.4,2.22,6.33,6.33,0,0,1,1.63,5,9.15,9.15,0,0,1-1.13,3.75l-2.45-.73a6.74,6.74,0,0,0,1-2.92,3.68,3.68,0,0,0-1-2.95,5.15,5.15,0,0,0-3.46-1.32,5.71,5.71,0,0,0-3.42.65,2.84,2.84,0,0,0-1.39,2.37,4.74,4.74,0,0,0,.07,1.18l1.61.11c1.28.08,1.95-.27,2-1.07a2.28,2.28,0,0,0,0-.37l2.32-.33a3.26,3.26,0,0,1,.29,1.61,3.08,3.08,0,0,1-.47,1.48,2.9,2.9,0,0,1-1.38,1.1,7.65,7.65,0,0,1-3.25.27Z" transform="translate(-486.16 -292.83)"/><path class="cls-5" d="M518.29,385.73l-2.73-1.05a4.72,4.72,0,0,0,.89-1.78,3,3,0,0,0-.57-2.67,6.07,6.07,0,0,0-6.17-1.46,2.9,2.9,0,0,0-1.71,2.14,4.45,4.45,0,0,0,0,2l-2.9-.27a7,7,0,0,1,.16-2.6,5.57,5.57,0,0,1,4.33-4.5,8.82,8.82,0,0,1,4.11.14,9,9,0,0,1,3.64,1.63,5.89,5.89,0,0,1,1.87,2.58,6,6,0,0,1,.08,3.45A7.11,7.11,0,0,1,518.29,385.73Z" transform="translate(-486.16 -292.83)"/><path class="cls-5" d="M525,365.71l-1.1,2.66-6.09-2.52c-1.59-.65-2.81-.8-3.67-.44a4.13,4.13,0,0,0-2,2.38,17.55,17.55,0,0,0-.93,3.13l-2.82-.94a17.85,17.85,0,0,1,1.16-3.8,6.79,6.79,0,0,1,2.31-3.2,5.12,5.12,0,0,1,2.86-.91,10.14,10.14,0,0,1,3.74.91Zm-9.51,4,6.72,2.78-1.11,2.67-6.71-2.78Z" transform="translate(-486.16 -292.83)"/><path class="cls-5" d="M535.43,350.31l-1.75,2.29-5.83-4.45a5,5,0,0,0-2.6-1.19,2.53,2.53,0,0,0-2.15,1.25,6.83,6.83,0,0,0-.79,1.27l8.69,6.64-1.75,2.29-10.9-8.32a18.74,18.74,0,0,1,2.09-3.46,7.22,7.22,0,0,1,3-2.57,4.44,4.44,0,0,1,2.81-.1,10.16,10.16,0,0,1,3.18,1.77Z" transform="translate(-486.16 -292.83)"/><path class="cls-5" d="M529.55,336.45l9.94,9.84-2.09,2.11-9.94-9.84Z" transform="translate(-486.16 -292.83)"/><path class="cls-5" d="M539.25,342.37a3.16,3.16,0,0,0,1.06-.48.8.8,0,0,0,.4-.8,3.73,3.73,0,0,0-.73-1.28l-4.08-5.32a15.65,15.65,0,0,0-1.6,1.51l-1.92-2.14a35,35,0,0,1,4.11-3.69,11,11,0,0,1,3.37-1.9,3.9,3.9,0,0,1,2.89.28,9.3,9.3,0,0,1,3,2.8l4.59,6-2.29,1.75-4.18-5.46c-1.08-1.41-2-2.19-2.67-2.35s-1.74.28-3.12,1.34l4.25,5.56a10.51,10.51,0,0,1,1.39,2.15,2.35,2.35,0,0,1,.08,1.53,3.09,3.09,0,0,1-1.19,1.53,6.48,6.48,0,0,1-2.29,1.14Z" transform="translate(-486.16 -292.83)"/><path class="cls-5" d="M548.57,322.4l3.86,6.78-2.59,1.47L546,323.86Z" transform="translate(-486.16 -292.83)"/><path class="cls-5" d="M552.58,320.69a12,12,0,0,1,3.4-2.13,5.77,5.77,0,0,1,5,0,7.29,7.29,0,0,1,3.49,4,7.75,7.75,0,0,1,.4,5.82,6.35,6.35,0,0,1-3.72,3.67,9.17,9.17,0,0,1-3.87.64l-.43-2.52a6.8,6.8,0,0,0,3-.43,3.7,3.7,0,0,0,2.21-2.2,5.14,5.14,0,0,0-.36-3.69,5.67,5.67,0,0,0-2.09-2.78,2.83,2.83,0,0,0-2.74-.19,4.59,4.59,0,0,0-1,.58l.62,1.5c.49,1.18,1.1,1.62,1.85,1.31a2.45,2.45,0,0,0,.33-.16l1.32,1.93a3.32,3.32,0,0,1-1.32,1,3.24,3.24,0,0,1-1.53.23,2.93,2.93,0,0,1-1.6-.75,7.54,7.54,0,0,1-1.68-2.8Z" transform="translate(-486.16 -292.83)"/><path class="cls-5" d="M568.53,314.56l3.68,13.49-2.86.78-3.69-13.49Z" transform="translate(-486.16 -292.83)"/><path class="cls-5" d="M579.92,323.51a3.17,3.17,0,0,0,1.13.21.83.83,0,0,0,.8-.43,3.78,3.78,0,0,0,.12-1.48l-.31-6.69a18.54,18.54,0,0,0-2.18.33l-.36-2.84a33.22,33.22,0,0,1,5.48-.7,10.8,10.8,0,0,1,3.85.36,3.86,3.86,0,0,1,2.21,1.87,9.35,9.35,0,0,1,.91,4l.36,7.55-2.89.13-.33-6.87c-.08-1.78-.36-2.93-.85-3.46s-1.59-.76-3.32-.67l.33,7a11.55,11.55,0,0,1-.09,2.56,2.33,2.33,0,0,1-.81,1.3,3,3,0,0,1-1.85.58,6.56,6.56,0,0,1-2.53-.36Z" transform="translate(-486.16 -292.83)"/><path class="cls-5" d="M599.09,312.43l-1.39,13.92-3-.3,1.39-13.91Z" transform="translate(-486.16 -292.83)"/><path class="cls-5" d="M608.85,322.27l2,6.51-3.31-.72-2.28-7.55c-.75.62-1.34,1.9-1.75,3.84l-.75,2.69-2.73-.59.82-2.86a14.14,14.14,0,0,1,1.67-4,5.28,5.28,0,0,1,1.93-1.71l-1.5-5.07,3.3.71,1.89,6.26c.76-.46,1.32-1.51,1.67-3.15l.63-2.21,2.61.56-.48,1.64a14,14,0,0,1-1.58,3.86A6,6,0,0,1,608.85,322.27Z" transform="translate(-486.16 -292.83)"/><path class="cls-5" d="M624.79,319.22l-1.29,3.36a21.67,21.67,0,0,1-1.18,2.65,4.87,4.87,0,0,1-1.14,1.4l-.74.63a8.19,8.19,0,0,0-1,1,4.35,4.35,0,0,0-.6,1.13l-.84,2.16-2.68-1,.9-2.33a6.31,6.31,0,0,1,.87-1.63,9.88,9.88,0,0,1,1.49-1.46l.44-.36a4.62,4.62,0,0,0,1.32-2l.64-1.64-5.42-2.09,3.08-8,2.68,1-1.92,5Z" transform="translate(-486.16 -292.83)"/><path class="cls-5" d="M619.21,337.91,625.55,327l2.49,1.44-6.34,10.94Zm8.11-14,1.6-2.76,8.35,4.84-1.81,3.11a22.17,22.17,0,0,1-1.57,2.45,5,5,0,0,1-1.35,1.19l-.83.51a6.89,6.89,0,0,0-1.25.95,4.86,4.86,0,0,0-.68.94l-1.16,2-2.5-1.45,1.25-2.16a6.4,6.4,0,0,1,1.11-1.48,9.39,9.39,0,0,1,1.71-1.2l.48-.29a4.58,4.58,0,0,0,1.62-1.74l.88-1.52Z" transform="translate(-486.16 -292.83)"/><path class="cls-5" d="M640.06,346l-2.21-1.85,4.72-5.63a5.08,5.08,0,0,0,1.31-2.53,2.57,2.57,0,0,0-1.16-2.21,6.09,6.09,0,0,0-1.23-.85l-7,8.37-2.21-1.85L641.06,329a19,19,0,0,1,3.36,2.25,7.19,7.19,0,0,1,2.43,3.11,4.43,4.43,0,0,1,0,2.81,10.15,10.15,0,0,1-1.92,3.1Z" transform="translate(-486.16 -292.83)"/><path class="cls-5" d="M649.45,345.57l-5.57,4.66L642,348l5.57-4.66Zm-.89,10.26-1.85-2.21,5.06-4.22a5,5,0,0,0,2.09-3,4.11,4.11,0,0,0-1.16-2.93,18.09,18.09,0,0,0-2.33-2.28l2.14-2.06a18.06,18.06,0,0,1,2.83,2.8,6.77,6.77,0,0,1,1.76,3.53,5.18,5.18,0,0,1-.52,3,10.25,10.25,0,0,1-2.55,2.88Z" transform="translate(-486.16 -292.83)"/><path class="cls-5" d="M667,367l-.73-1.52-9.74,4.67-1.25-2.61,9.74-4.67-2.59-5.38,2.88-1.38,4.57,9.51Z" transform="translate(-486.16 -292.83)"/><path class="cls-5" d="M660.2,381.43l-.82-2.76,6.59-2a4.75,4.75,0,0,0,2.82-1.75,3.56,3.56,0,0,0,.12-2.92,17.06,17.06,0,0,0-1-2.38l2.73-1.05a12.1,12.1,0,0,1,1.39,3.15,5.71,5.71,0,0,1-.23,4.66c-.72,1.24-2.19,2.19-4.39,2.86Z" transform="translate(-486.16 -292.83)"/><path class="cls-5" d="M666.14,386.34a3.07,3.07,0,0,0-1.69,1.25,2.85,2.85,0,0,0-.52,2,3.18,3.18,0,0,0,1.91,2.6,9.18,9.18,0,0,0,4.94.48l5.13-.27.31,2.82-5.36.23a19.13,19.13,0,0,1-5.08-.27,6.72,6.72,0,0,1-3-1.72,5.64,5.64,0,0,1-1.59-3.52,5.33,5.33,0,0,1,1.88-4.82q2.19-1.94,7-2.48l4.69-.65.31,2.85-3.68.43c-.49.06-1.19.16-2.11.31l-.85.13a1.9,1.9,0,0,0,.58,1.18,2.26,2.26,0,0,0,1.27.6,12.05,12.05,0,0,0,2.57-.09l2.49-.17.31,2.78-3.45.24a15.44,15.44,0,0,1-2.11,0,4.63,4.63,0,0,1-1.56-.41,3.61,3.61,0,0,1-1.43-1.19A6,6,0,0,1,666.14,386.34Z" transform="translate(-486.16 -292.83)"/><path class="cls-5" d="M673,402.45c2,1.29,2.9,2.7,2.75,4.23a3.46,3.46,0,0,1-2.27,2.87c-1.38.62-3.54.79-6.46.5l-5.77-.58.56-5.53,3.17.31-.27,2.66,2.8.28a14,14,0,0,0,3.87,0c.76-.17,1.16-.55,1.22-1.14s-.32-1.19-1.15-1.69a20.06,20.06,0,0,0-4.79-1.61L662,401.65l.31-3,3,.8a37.5,37.5,0,0,1,3.86,1.21l7.13-1.13-.26,2.6Z" transform="translate(-486.16 -292.83)"/></g></svg>